<svg width="27" height="27" viewBox="0 0 27 27" fill="none" xmlns="http://www.w3.org/2000/svg">
<path d="M15.6938 13.5L12.15 11.475V15.525L15.6938 13.5Z" fill="white"/>
<path fill-rule="evenodd" clip-rule="evenodd" d="M0 13.5C0 6.04416 6.04416 0 13.5 0C20.9558 0 27 6.04416 27 13.5C27 20.9558 20.9558 27 13.5 27C6.04416 27 0 20.9558 0 13.5ZM18.7313 9.02813C19.3219 9.19688 19.7438 9.61875 19.9125 10.2094C20.25 11.3063 20.25 13.5 20.25 13.5C20.25 13.5 20.25 15.6938 19.9969 16.7906C19.8281 17.3813 19.4062 17.8031 18.8156 17.9719C17.7187 18.225 13.5 18.225 13.5 18.225C13.5 18.225 9.19687 18.225 8.18437 17.9719C7.59375 17.8031 7.17188 17.3813 7.00313 16.7906C6.75 15.6938 6.75 13.5 6.75 13.5C6.75 13.5 6.75 11.3063 6.91875 10.2094C7.0875 9.61875 7.50938 9.19688 8.10001 9.02813C9.19688 8.775 13.4156 8.775 13.4156 8.775C13.4156 8.775 17.7188 8.775 18.7313 9.02813Z" fill="white"/>
</svg>
