<svg xmlns="http://www.w3.org/2000/svg" width="27" height="27" fill="none"><path fill="#fff" fill-rule="evenodd" d="M13.5 0C6.044 0 0 6.044 0 13.5S6.044 27 13.5 27 27 20.956 27 13.5 20.956 0 13.5 0ZM6.481 11.182h3.06v9.192H6.48v-9.192Zm3.26-2.844c-.02-.902-.664-1.588-1.71-1.588-1.047 0-1.732.686-1.732 1.588 0 .882.664 1.589 1.692 1.589h.02c1.066 0 1.73-.707 1.73-1.59Zm7.31 2.626c2.014 0 3.523 1.314 3.523 4.138v5.27h-3.06v-4.918c0-1.235-.442-2.078-1.55-2.078-.845 0-1.348.569-1.57 1.117-.08.197-.1.471-.1.746v5.133h-3.06s.04-8.33 0-9.192h3.06v1.302c.406-.626 1.133-1.518 2.758-1.518Z" clip-rule="evenodd"/></svg>