<svg xmlns="http://www.w3.org/2000/svg" width="27" height="27" fill="none"><path fill="#fff" fill-rule="evenodd" d="M13.5 0C6.044 0 0 6.044 0 13.5S6.044 27 13.5 27 27 20.956 27 13.5 20.956 0 13.5 0ZM9.443 6.75c.04.032.072.032.103.028.164-.014.305.026.396.176l.048.078c.188.305.376.61.555.922.13.226.253.455.377.685.09.168.181.337.275.504.036.068.081.132.126.195.026.036.051.073.075.11.057.09.112.185.166.276l.009.015c.116.22.11.44-.062.615-.181.185-.376.36-.57.536-.07.062-.138.123-.206.186l-.255.23c-.136.12-.27.24-.4.365-.166.16-.208.36-.097.57l.031.058c.162.303.324.606.5.902.7 1.167 1.595 2.159 2.724 2.923.436.297.889.568 1.346.827.431.244.6.202.934-.17.177-.197.35-.395.524-.594.132-.15.264-.302.398-.453.074-.084.164-.158.25-.23a.485.485 0 0 1 .572-.063l.039.018c.044.021.09.043.128.07.36.257.747.464 1.134.67.192.102.383.204.571.313.194.11.385.227.575.343.108.067.216.133.325.198.161.095.226.234.215.426-.03.538-.12 1.067-.433 1.522-.13.188-.317.354-.504.487-.52.364-1.1.589-1.716.726-.561.126-1.12.08-1.658-.088-1.037-.32-2.06-.686-3-1.24a13.184 13.184 0 0 1-2.35-1.799c-.91-.866-1.723-1.811-2.38-2.887-.429-.698-.735-1.45-1.012-2.218-.168-.463-.333-.922-.407-1.412a3.367 3.367 0 0 1 .151-1.616c.16-.475.36-.93.661-1.336.237-.316.533-.547.916-.65.217-.058.435-.107.652-.156.092-.02.183-.04.274-.062Z" clip-rule="evenodd"/></svg>