<svg xmlns="http://www.w3.org/2000/svg" width="27" height="27" fill="none"><path fill="#fff" fill-rule="evenodd" d="M13.5 0C6.044 0 0 6.044 0 13.5S6.044 27 13.5 27 27 20.956 27 13.5 20.956 0 13.5 0Zm-.376 11.442-.028-.467c-.085-1.211.66-2.317 1.841-2.746.434-.153 1.171-.172 1.653-.038.188.057.547.248.802.42l.463.314.51-.162c.283-.086.66-.229.83-.324.161-.086.303-.134.303-.105 0 .162-.35.715-.642 1.02-.397.429-.283.467.52.181.48-.162.49-.162.396.02-.057.094-.35.428-.661.733-.529.524-.557.582-.557 1.02 0 .677-.321 2.088-.642 2.86-.595 1.45-1.87 2.946-3.145 3.7-1.794 1.057-4.183 1.324-6.195.705-.67-.21-1.822-.744-1.822-.84 0-.028.35-.066.774-.076a5.317 5.317 0 0 0 2.531-.705l.51-.305-.585-.2c-.831-.286-1.577-.944-1.766-1.564-.057-.2-.038-.21.49-.21l.548-.01-.462-.218c-.548-.277-1.048-.744-1.294-1.22-.18-.344-.406-1.211-.34-1.278.019-.029.217.029.444.105.651.238.736.18.359-.22-.709-.724-.926-1.801-.586-2.821l.16-.458.624.62c1.275 1.249 2.776 1.992 4.495 2.211l.472.058Z" clip-rule="evenodd"/></svg>