<svg xmlns="http://www.w3.org/2000/svg" width="28" height="28" fill="none"><path fill="#fff" d="M.173 13.914c0 5.718 3.558 10.604 8.58 12.571-.119-1.067-.224-2.706.047-3.874.244-1.053 1.583-6.71 1.583-6.71s-.404-.808-.404-2.003c0-1.878 1.087-3.28 2.443-3.28 1.15 0 1.707.865 1.707 1.903 0 1.158-.737 2.89-1.118 4.494-.318 1.345.675 2.44 1.999 2.44 2.4 0 4.244-2.53 4.244-6.183 0-3.232-2.321-5.492-5.639-5.492-3.84 0-6.095 2.882-6.095 5.86 0 1.16.446 2.404 1.004 3.08.11.134.126.25.094.388-.102.426-.33 1.343-.375 1.53-.059.247-.196.3-.453.182-1.685-.785-2.738-3.252-2.738-5.23 0-4.259 3.094-8.171 8.92-8.171 4.682 0 8.322 3.338 8.322 7.797 0 4.653-2.935 8.398-7.005 8.398-1.369 0-2.655-.712-3.095-1.551 0 0-.677 2.577-.841 3.209-.305 1.172-1.128 2.642-1.677 3.539 1.262.392 2.604.603 3.997.603 7.456 0 13.5-6.044 13.5-13.5 0-7.458-6.044-13.5-13.5-13.5s-13.5 6.042-13.5 13.5Z"/></svg>