<svg xmlns="http://www.w3.org/2000/svg" width="27" height="27" fill="none"><path fill="#fff" fill-rule="evenodd" d="M13.5 27C6.044 27 0 20.956 0 13.5S6.044 0 13.5 0 27 6.044 27 13.5 20.956 27 13.5 27Zm.188-14.258c1.105 0 6.48-3.022 6.48-3.022l.009-.54a1.08 1.08 0 0 0-1.082-1.08H8.281A1.08 1.08 0 0 0 7.2 9.18v.481s5.433 3.081 6.488 3.081Zm-6.48-1.402s5.425 2.888 6.48 2.888c1.156 0 6.48-2.888 6.48-2.888l.009 6.48a1.08 1.08 0 0 1-1.082 1.08H8.281A1.08 1.08 0 0 1 7.2 17.82l.009-6.48Z" clip-rule="evenodd"/></svg>