<svg xmlns="http://www.w3.org/2000/svg" width="27" height="27" fill="none"><path fill="#fff" fill-rule="evenodd" d="M13.5 0C6.044 0 0 6.044 0 13.5S6.044 27 13.5 27 27 20.956 27 13.5 20.956 0 13.5 0Zm-2.969 6.343c.768-.035 1.014-.044 2.97-.044h-.003c1.956 0 2.2.009 2.969.044.766.035 1.29.156 1.749.334.474.184.874.43 1.275.83.4.4.646.803.83 1.276.178.458.3.981.335 1.748.035.768.044 1.013.044 2.968 0 1.956-.01 2.2-.044 2.969-.036.766-.157 1.29-.334 1.747-.185.474-.43.875-.831 1.276-.4.4-.802.647-1.275.83-.458.179-.982.3-1.748.335-.768.035-1.013.044-2.969.044-1.955 0-2.2-.009-2.968-.044-.766-.035-1.29-.156-1.748-.334a3.526 3.526 0 0 1-1.275-.831c-.4-.4-.646-.802-.83-1.276-.178-.458-.3-.98-.335-1.747-.035-.768-.043-1.013-.043-2.969 0-1.955.009-2.2.043-2.969.034-.766.156-1.29.334-1.747.185-.473.431-.875.832-1.275.4-.4.801-.647 1.275-.83.458-.179.981-.3 1.747-.335Z" clip-rule="evenodd"/><path fill="#fff" fill-rule="evenodd" d="M12.854 7.598h.646c1.922 0 2.15.007 2.91.041.701.032 1.082.15 1.336.248.336.13.576.287.828.539.252.252.408.492.538.828.099.253.216.634.248 1.336.035.76.042.987.042 2.909 0 1.921-.007 2.15-.042 2.908-.032.702-.149 1.083-.248 1.337-.13.336-.286.575-.538.827a2.226 2.226 0 0 1-.828.539c-.253.099-.635.216-1.337.248-.759.034-.987.042-2.909.042-1.923 0-2.15-.008-2.91-.042-.701-.033-1.082-.15-1.336-.249a2.23 2.23 0 0 1-.828-.538 2.231 2.231 0 0 1-.54-.828c-.098-.253-.215-.634-.247-1.336-.035-.76-.042-.987-.042-2.91s.007-2.15.042-2.908c.032-.702.15-1.083.248-1.337a2.23 2.23 0 0 1 .539-.828c.252-.252.492-.408.828-.54.253-.098.635-.215 1.337-.247.664-.03.921-.04 2.263-.04v.001Zm4.49 1.195a.864.864 0 1 0 0 1.728.864.864 0 0 0 0-1.728Zm-7.54 4.706a3.698 3.698 0 1 1 7.395 0 3.698 3.698 0 0 1-7.396 0Z" clip-rule="evenodd"/><path fill="#fff" d="M13.5 11.1a2.4 2.4 0 1 1 0 4.8 2.4 2.4 0 0 1 0-4.8Z"/></svg>