<svg xmlns="http://www.w3.org/2000/svg" width="27" height="27" fill="none"><path fill="#fff" fill-rule="evenodd" d="M0 13.5C0 20.956 6.044 27 13.5 27S27 20.956 27 13.5 20.956 0 13.5 0 0 6.044 0 13.5Zm19.994-1.478c0 3.784-4.977 9.428-6.232 9.428-1.434 0-6.41-5.644-6.41-9.428 0-3.622 2.83-6.624 6.41-6.624 3.401 0 6.232 3.002 6.232 6.624Z" clip-rule="evenodd"/><path fill="#fff" d="M10.652 9.334a3.911 3.911 0 0 0-.824 2.434c0 1.994 1.722 3.7 3.957 3.7 2.015 0 3.738-1.706 3.738-3.7 0-2.213-1.723-3.918-3.738-3.918-.354 0-.695.043-1.018.124.534.23.908.758.908 1.372 0 .827-.676 1.497-1.511 1.497-.835 0-1.512-.67-1.512-1.497v-.012Z"/></svg>