<svg xmlns="http://www.w3.org/2000/svg" width="134" height="57" fill="none"><path fill="#fff" d="m2.092 27.46 15.816-19.4H2.813V0H30.07v6.805l-15.864 19.4h16.922v8.06H2.092V27.46ZM34.732 27.46l15.816-19.4H35.453V0H62.71v6.805l-15.864 19.4h16.922v8.06H34.732V27.46ZM80.352 20.703h7.884L84.294 9.46l-3.942 11.244ZM65.93 34.264 79.342 0h10.24l13.46 34.264H92.995L90.88 28.28H77.708l-2.067 5.984h-9.71ZM104.964 27.46l15.816-19.4h-15.095V0h27.257v6.805l-15.864 19.4H134v8.06h-29.036V27.46ZM.035 53.668a5.39 5.39 0 0 0 3.55 1.288c.802 0 1.4-.14 1.796-.422.395-.28.593-.65.593-1.106 0-.396-.165-.76-.496-1.092-.33-.332-1.13-.77-2.398-1.315C2 50.535 1.217 49.989.73 49.38.244 48.774 0 48.062 0 47.245c0-1.179.454-2.101 1.363-2.768.909-.666 2.1-1 3.575-1 1.322 0 2.363.166 3.125.498v2.426c-.844-.58-1.862-.87-3.054-.87-.702 0-1.27.132-1.703.399-.434.267-.65.634-.65 1.102 0 .373.15.713.45 1.021.301.308 1.006.708 2.116 1.2 1.274.556 2.16 1.141 2.655 1.754.495.613.743 1.346.743 2.2 0 1.231-.438 2.172-1.314 2.82C6.43 56.676 5.2 57 3.62 57c-1.47 0-2.664-.246-3.585-.737v-2.595ZM16.75 50.256c0 1.328.326 2.416.978 3.266.652.85 1.539 1.275 2.66 1.275 1.162 0 2.067-.405 2.713-1.213.646-.809.969-1.906.969-3.292 0-1.427-.313-2.553-.938-3.376-.626-.823-1.511-1.235-2.655-1.235-1.157 0-2.067.431-2.73 1.293-.665.861-.996 1.956-.996 3.282Zm-2.655.143c0-2.056.589-3.723 1.766-5.002 1.177-1.28 2.742-1.92 4.695-1.92 1.853 0 3.344.621 4.474 1.862 1.13 1.24 1.695 2.833 1.695 4.775 0 2.05-.583 3.71-1.748 4.98C23.811 56.364 22.27 57 20.353 57c-1.865 0-3.374-.619-4.527-1.857-1.154-1.238-1.73-2.82-1.73-4.744ZM40.466 56.769h-7.452V43.691h2.523v10.981h4.93v2.097ZM56.261 51.216c0 3.856-1.776 5.784-5.328 5.784-3.416 0-5.124-1.874-5.124-5.624v-7.685h2.531v7.685c0 2.28.908 3.42 2.726 3.42 1.782 0 2.673-1.101 2.673-3.304V43.69h2.522v7.525ZM71.95 45.797h-3.726v10.972h-2.532V45.797h-3.716V43.69h9.974v2.105ZM80.319 56.769h-2.522V43.69h2.522v13.078ZM89.282 50.256c0 1.328.325 2.416.978 3.266.651.85 1.538 1.275 2.659 1.275 1.162 0 2.067-.405 2.713-1.213.646-.809.969-1.906.969-3.292 0-1.427-.313-2.553-.938-3.376-.626-.823-1.511-1.235-2.656-1.235-1.156 0-2.066.431-2.73 1.293-.663.861-.995 1.956-.995 3.282Zm-2.656.143c0-2.056.589-3.723 1.766-5.002 1.177-1.28 2.742-1.92 4.695-1.92 1.852 0 3.344.621 4.474 1.862 1.13 1.24 1.695 2.833 1.695 4.775 0 2.05-.583 3.71-1.748 4.98C96.343 56.364 94.8 57 92.884 57c-1.865 0-3.374-.619-4.527-1.857-1.154-1.238-1.73-2.82-1.73-4.744ZM116.9 56.769h-2.637l-5.762-8.858a9.422 9.422 0 0 1-.584-1.013h-.036c.048.415.071 1.09.071 2.026v7.845h-2.407V43.691h2.815l5.558 8.627c.283.438.489.776.619 1.013h.035c-.047-.231-.07-.842-.07-1.83v-7.81h2.398v13.078ZM123.429 53.668c1.032.859 2.215 1.288 3.548 1.288.803 0 1.402-.14 1.797-.422.396-.28.593-.65.593-1.106 0-.396-.165-.76-.495-1.092-.331-.332-1.131-.77-2.399-1.315-1.08-.486-1.863-1.032-2.35-1.64-.486-.607-.73-1.319-.73-2.136 0-1.18.455-2.101 1.363-2.768.909-.666 2.1-1 3.576-1 1.321 0 2.363.166 3.124.498v2.426c-.844-.58-1.862-.871-3.054-.871-.702 0-1.27.133-1.703.4-.434.267-.651.634-.651 1.102 0 .373.151.713.451 1.021.301.308 1.006.708 2.116 1.2 1.274.556 2.159 1.141 2.655 1.754s.743 1.346.743 2.2c0 1.231-.438 2.171-1.314 2.82-.876.649-2.105.973-3.686.973-1.469 0-2.664-.246-3.584-.737v-2.595Z"/></svg>