<svg width="132" height="60" viewBox="0 0 132 60" fill="none" xmlns="http://www.w3.org/2000/svg">
<path d="M1.35056 38V30.6595L17.8336 8.9295H1.96006V0.899997H28.4866V8.1875L12.0831 29.9705H28.6191V38H1.35056ZM34.8925 38V0.899997H49.2555C53.0362 0.899997 56.0572 1.695 58.3185 3.285C60.5799 4.85733 61.7105 7.19816 61.7105 10.3075C61.7105 12.0035 61.207 13.5052 60.2 14.8125C59.193 16.1022 57.9652 17.0738 56.5165 17.7275C58.5129 18.4342 60.1205 19.609 61.3395 21.252C62.5762 22.895 63.1945 24.8472 63.1945 27.1085C63.1945 30.4298 61.9755 33.0798 59.5375 35.0585C57.0995 37.0195 53.787 38 49.6 38H34.8925ZM43.6905 16.111H48.063C49.653 16.111 50.9074 15.7223 51.826 14.945C52.7447 14.15 53.204 13.0458 53.204 11.6325C53.204 10.2722 52.7447 9.221 51.826 8.479C50.925 7.737 49.6265 7.366 47.9305 7.366H43.6905V16.111ZM43.6905 31.5075H48.328C52.144 31.5075 54.052 29.9528 54.052 26.8435C54.052 25.3595 53.5927 24.2112 52.674 23.3985C51.7554 22.5682 50.4039 22.153 48.6195 22.153H43.6905V31.5075ZM69.7773 38V0.899997H95.8533V8.532H78.5753V15.422H93.0708V22.471H78.5753V30.2885H96.0653V38H69.7773ZM103.42 38V0.899997H129.496V8.532H112.218V15.422H126.713V22.471H112.218V30.2885H129.708V38H103.42ZM5.99021 59.285C5.04021 59.285 4.11237 59.1488 3.20671 58.8765C2.30737 58.6042 1.54737 58.2083 0.926708 57.689L2.12371 55.8175C2.57971 56.2418 3.16237 56.5743 3.87171 56.815C4.58104 57.0557 5.29037 57.176 5.99971 57.176C6.79137 57.176 7.43421 57.0303 7.92821 56.739C8.42221 56.4413 8.66921 56.0138 8.66921 55.4565C8.66921 55.0258 8.49821 54.6617 8.15621 54.364C7.81421 54.0663 7.18404 53.7877 6.26571 53.528L4.97371 53.1575C3.67537 52.7902 2.73487 52.2993 2.15221 51.685C1.57587 51.0643 1.28771 50.3043 1.28771 49.405C1.28771 48.6197 1.49671 47.9293 1.91471 47.334C2.33904 46.7323 2.92171 46.2637 3.66271 45.928C4.40371 45.5923 5.24921 45.4245 6.19921 45.4245C7.12387 45.4245 7.98521 45.5607 8.78321 45.833C9.58754 46.099 10.243 46.4632 10.7497 46.9255L9.52421 48.74C9.12521 48.3663 8.62171 48.0718 8.01371 47.8565C7.41204 47.6348 6.79137 47.524 6.15171 47.524C5.40437 47.524 4.79954 47.6792 4.33721 47.9895C3.88121 48.2935 3.65321 48.7242 3.65321 49.2815C3.65321 49.6932 3.82104 50.0288 4.15671 50.2885C4.49871 50.5418 5.12887 50.8047 6.04721 51.077L7.39621 51.476C8.66921 51.8497 9.59704 52.331 10.1797 52.92C10.7624 53.5027 11.0537 54.2627 11.0537 55.2C11.0537 56.0043 10.851 56.7137 10.4457 57.328C10.0404 57.9423 9.45771 58.4237 8.69771 58.772C7.94404 59.114 7.04154 59.285 5.99021 59.285ZM22.4221 59.285C21.4088 59.285 20.4746 59.1108 19.6196 58.7625C18.7646 58.4078 18.0204 57.917 17.3871 57.29C16.7538 56.663 16.2629 55.9283 15.9146 55.086C15.5663 54.2437 15.3921 53.3317 15.3921 52.35C15.3921 51.362 15.5663 50.4468 15.9146 49.6045C16.2629 48.7622 16.7538 48.0275 17.3871 47.4005C18.0204 46.7735 18.7646 46.2858 19.6196 45.9375C20.4746 45.5892 21.4088 45.415 22.4221 45.415C23.4228 45.415 24.3474 45.5923 25.1961 45.947C26.0511 46.3017 26.7953 46.7957 27.4286 47.429C28.0683 48.0623 28.5654 48.8002 28.9201 49.6425C29.2748 50.4785 29.4521 51.381 29.4521 52.35C29.4521 53.3317 29.2748 54.2437 28.9201 55.086C28.5654 55.9283 28.0683 56.663 27.4286 57.29C26.7953 57.917 26.0511 58.4078 25.1961 58.7625C24.3474 59.1108 23.4228 59.285 22.4221 59.285ZM22.4221 56.9575C23.2581 56.9575 24.0118 56.7675 24.6831 56.3875C25.3544 56.0075 25.8864 55.4723 26.2791 54.782C26.6718 54.0917 26.8681 53.281 26.8681 52.35C26.8681 51.419 26.6718 50.6083 26.2791 49.918C25.8864 49.2277 25.3544 48.6925 24.6831 48.3125C24.0118 47.9325 23.2581 47.7425 22.4221 47.7425C21.5798 47.7425 20.8229 47.9325 20.1516 48.3125C19.4803 48.6925 18.9483 49.2277 18.5556 49.918C18.1693 50.6083 17.9761 51.419 17.9761 52.35C17.9761 53.281 18.1693 54.0917 18.5556 54.782C18.9483 55.4723 19.4803 56.0075 20.1516 56.3875C20.8229 56.7675 21.5798 56.9575 22.4221 56.9575ZM34.6315 59V45.7H37.1015V56.739H42.7445V59H34.6315ZM52.9483 59.285C51.7449 59.285 50.7348 59.0443 49.9178 58.563C49.1071 58.0753 48.4959 57.4103 48.0843 56.568C47.6726 55.7257 47.4668 54.7757 47.4668 53.718V45.7H49.9368V53.7465C49.9368 54.8295 50.2059 55.637 50.7443 56.169C51.2826 56.6947 52.0173 56.9575 52.9483 56.9575C53.8729 56.9575 54.6044 56.6947 55.1428 56.169C55.6811 55.637 55.9503 54.8295 55.9503 53.7465V45.7H58.4298V53.718C58.4298 54.7757 58.2239 55.7257 57.8123 56.568C57.4006 57.404 56.7894 58.0658 55.9788 58.5535C55.1681 59.0412 54.1579 59.285 52.9483 59.285ZM66.83 59V47.961H63.1535V45.7H72.986V47.961H69.3095V59H66.83ZM77.7912 59V45.7H80.2612V59H77.7912ZM92.4809 59.285C91.4675 59.285 90.5334 59.1108 89.6784 58.7625C88.8234 58.4078 88.0792 57.917 87.4459 57.29C86.8125 56.663 86.3217 55.9283 85.9734 55.086C85.625 54.2437 85.4509 53.3317 85.4509 52.35C85.4509 51.362 85.625 50.4468 85.9734 49.6045C86.3217 48.7622 86.8125 48.0275 87.4459 47.4005C88.0792 46.7735 88.8234 46.2858 89.6784 45.9375C90.5334 45.5892 91.4675 45.415 92.4809 45.415C93.4815 45.415 94.4062 45.5923 95.2549 45.947C96.1099 46.3017 96.854 46.7957 97.4874 47.429C98.127 48.0623 98.6242 48.8002 98.9789 49.6425C99.3335 50.4785 99.5109 51.381 99.5109 52.35C99.5109 53.3317 99.3335 54.2437 98.9789 55.086C98.6242 55.9283 98.127 56.663 97.4874 57.29C96.854 57.917 96.1099 58.4078 95.2549 58.7625C94.4062 59.1108 93.4815 59.285 92.4809 59.285ZM92.4809 56.9575C93.3169 56.9575 94.0705 56.7675 94.7419 56.3875C95.4132 56.0075 95.9452 55.4723 96.3379 54.782C96.7305 54.0917 96.9269 53.281 96.9269 52.35C96.9269 51.419 96.7305 50.6083 96.3379 49.918C95.9452 49.2277 95.4132 48.6925 94.7419 48.3125C94.0705 47.9325 93.3169 47.7425 92.4809 47.7425C91.6385 47.7425 90.8817 47.9325 90.2104 48.3125C89.539 48.6925 89.007 49.2277 88.6144 49.918C88.228 50.6083 88.0349 51.419 88.0349 52.35C88.0349 53.281 88.228 54.0917 88.6144 54.782C89.007 55.4723 89.539 56.0075 90.2104 56.3875C90.8817 56.7675 91.6385 56.9575 92.4809 56.9575ZM104.69 59V45.7H107.084L113.383 54.858V45.7H115.786V59H113.392L107.094 49.728V59H104.69ZM126.241 59.285C125.291 59.285 124.363 59.1488 123.457 58.8765C122.558 58.6042 121.798 58.2083 121.177 57.689L122.374 55.8175C122.83 56.2418 123.413 56.5743 124.122 56.815C124.832 57.0557 125.541 57.176 126.25 57.176C127.042 57.176 127.685 57.0303 128.179 56.739C128.673 56.4413 128.92 56.0138 128.92 55.4565C128.92 55.0258 128.749 54.6617 128.407 54.364C128.065 54.0663 127.435 53.7877 126.516 53.528L125.224 53.1575C123.926 52.7902 122.986 52.2993 122.403 51.685C121.827 51.0643 121.538 50.3043 121.538 49.405C121.538 48.6197 121.747 47.9293 122.165 47.334C122.59 46.7323 123.172 46.2637 123.913 45.928C124.654 45.5923 125.5 45.4245 126.45 45.4245C127.375 45.4245 128.236 45.5607 129.034 45.833C129.838 46.099 130.494 46.4632 131 46.9255L129.775 48.74C129.376 48.3663 128.872 48.0718 128.264 47.8565C127.663 47.6348 127.042 47.524 126.402 47.524C125.655 47.524 125.05 47.6792 124.588 47.9895C124.132 48.2935 123.904 48.7242 123.904 49.2815C123.904 49.6932 124.072 50.0288 124.407 50.2885C124.749 50.5418 125.38 50.8047 126.298 51.077L127.647 51.476C128.92 51.8497 129.848 52.331 130.43 52.92C131.013 53.5027 131.304 54.2627 131.304 55.2C131.304 56.0043 131.102 56.7137 130.696 57.328C130.291 57.9423 129.708 58.4237 128.948 58.772C128.195 59.114 127.292 59.285 126.241 59.285Z" fill="white"/>
</svg>
